<?xml version="1.0" encoding="utf-8"?>
<!-- Generator: Adobe Illustrator 22.0.0, SVG Export Plug-In . SVG Version: 6.00 Build 0)  -->
<svg version="1.1" id="Layer_1" xmlns="http://www.w3.org/2000/svg" xmlns:xlink="http://www.w3.org/1999/xlink" x="0px" y="0px"
	 viewBox="0 0 250 49.5" style="enable-background:new 0 0 250 49.5;" xml:space="preserve">
<style type="text/css">
	.st0{fill:url(#SVGID_1_);}
	.st1{fill:url(#SVGID_2_);}
	.st2{fill:url(#SVGID_3_);}
	.st3{fill:url(#SVGID_4_);}
	.st4{fill:url(#SVGID_5_);}
	.st5{fill:url(#SVGID_6_);}
	.st6{fill:url(#SVGID_7_);}
	.st7{fill:url(#SVGID_8_);}
	.st8{fill:url(#SVGID_9_);}
	.st9{fill:#383838;}
	.st10{fill:url(#SVGID_10_);}
	.st11{fill:url(#SVGID_11_);}
	.st12{fill:url(#SVGID_12_);}
	.st13{fill:url(#SVGID_13_);}
	.st14{fill:url(#SVGID_14_);}
	.st15{fill:url(#SVGID_15_);}
	.st16{fill:url(#SVGID_16_);}
	.st17{fill:url(#SVGID_17_);}
	.st18{fill:url(#SVGID_18_);}
	.st19{fill:url(#SVGID_19_);}
	.st20{fill:url(#SVGID_20_);}
	.st21{fill:url(#SVGID_21_);}
	.st22{fill:#357395;}
</style>
<title>Artboard 9 copy 32</title>
<g>
	<g>
		<g>
			<g>
				<g>
					<linearGradient id="SVGID_1_" gradientUnits="userSpaceOnUse" x1="19.1563" y1="27.9714" x2="1.3102" y2="27.9714">
						<stop  offset="3.196098e-07" style="stop-color:#F2B45B"/>
						<stop  offset="1" style="stop-color:#782752"/>
					</linearGradient>
					<path class="st0" d="M18,26.8c-0.7,0.9-1.7,1.3-2.6,1.3c-0.8,0-1.6,0.4-2.2,1c0,0,0,0-0.1,0.1c0,0,0,0-0.1,0.1
						c-0.6,0.6-0.9,1.4-1,2.2c0,1-0.5,2-1.3,2.6c-1.3,1-3.1,1-4.4,0c-1.7-1.3-1.8-3.8-0.3-5.3c0.7-0.7,1.5-1,2.3-1
						c0.8,0,1.6-0.4,2.2-1c0,0,0,0,0.1-0.1c0,0,0,0,0.1-0.1c0.6-0.6,0.9-1.4,1-2.2c0-0.9,0.4-1.7,1-2.3c1.5-1.5,3.9-1.4,5.3,0.3
						C19,23.7,19,25.6,18,26.8z"/>
					<linearGradient id="SVGID_2_" gradientUnits="userSpaceOnUse" x1="19.1563" y1="21.3338" x2="1.3102" y2="21.3338">
						<stop  offset="3.196098e-07" style="stop-color:#F2B45B"/>
						<stop  offset="1" style="stop-color:#782752"/>
					</linearGradient>
					<path class="st1" d="M13,27.4c-0.9-0.7-1.3-1.7-1.3-2.6c0-0.8-0.4-1.6-1-2.2c0,0,0,0-0.1-0.1c0,0,0,0-0.1-0.1
						c-0.6-0.6-1.4-0.9-2.2-1c-1,0-2-0.5-2.6-1.3c-1-1.3-1-3.1,0-4.4c1.3-1.7,3.8-1.8,5.3-0.3c0.7,0.7,1,1.5,1,2.3
						c0,0.8,0.4,1.6,1,2.2c0,0,0,0,0.1,0.1c0,0,0,0,0.1,0.1c0.6,0.6,1.4,0.9,2.2,1c0.9,0,1.7,0.4,2.3,1c1.5,1.5,1.4,3.9-0.3,5.3
						C16.1,28.4,14.3,28.4,13,27.4z"/>
				</g>
				<linearGradient id="SVGID_3_" gradientUnits="userSpaceOnUse" x1="19.1563" y1="24.6535" x2="1.3102" y2="24.6535">
					<stop  offset="3.196098e-07" style="stop-color:#F2B45B"/>
					<stop  offset="1" style="stop-color:#782752"/>
				</linearGradient>
				<circle class="st2" cx="5.2" cy="24.7" r="2.4"/>
			</g>
			<g>
				<g>
					<linearGradient id="SVGID_4_" gradientUnits="userSpaceOnUse" x1="18.8685" y1="19.8339" x2="30.4804" y2="8.2221">
						<stop  offset="2.165098e-07" style="stop-color:#183E65"/>
						<stop  offset="1" style="stop-color:#2FC6E8"/>
					</linearGradient>
					<path class="st3" d="M19.9,20.4c-0.1-1.1,0.2-2.1,0.9-2.8c0.6-0.6,0.9-1.4,0.9-2.2c0,0,0,0,0-0.1c0,0,0,0,0-0.1
						c0-0.8-0.3-1.6-0.9-2.2c-0.7-0.7-1-1.7-0.9-2.8C20,8.6,21.3,7.3,23,7.1c2.1-0.2,3.9,1.4,3.9,3.5c0,0.9-0.4,1.8-0.9,2.4
						c-0.6,0.6-0.9,1.4-0.9,2.2c0,0,0,0,0,0.1c0,0,0,0,0,0.1c0,0.8,0.3,1.6,0.9,2.2c0.6,0.6,0.9,1.5,0.9,2.4c0,2.1-1.8,3.8-3.9,3.5
						C21.3,23.4,20,22.1,19.9,20.4z"/>
					<linearGradient id="SVGID_5_" gradientUnits="userSpaceOnUse" x1="23.562" y1="24.5274" x2="35.1739" y2="12.9155">
						<stop  offset="2.165098e-07" style="stop-color:#183E65"/>
						<stop  offset="1" style="stop-color:#2FC6E8"/>
					</linearGradient>
					<path class="st4" d="M22.9,16.5c1.1-0.1,2.1,0.2,2.8,0.9c0.6,0.6,1.4,0.9,2.2,0.9c0,0,0,0,0.1,0c0,0,0,0,0.1,0
						c0.8,0,1.6-0.3,2.2-0.9c0.7-0.7,1.7-1,2.8-0.9c1.6,0.2,2.9,1.5,3.1,3.1c0.2,2.1-1.4,3.9-3.5,3.9c-0.9,0-1.8-0.4-2.4-0.9
						c-0.6-0.6-1.4-0.9-2.2-0.9c0,0,0,0-0.1,0c0,0,0,0-0.1,0c-0.8,0-1.6,0.3-2.2,0.9c-0.6,0.6-1.5,0.9-2.4,0.9
						c-2.1,0-3.8-1.8-3.5-3.9C20,18,21.3,16.7,22.9,16.5z"/>
				</g>
				<linearGradient id="SVGID_6_" gradientUnits="userSpaceOnUse" x1="21.2147" y1="22.1801" x2="32.8265" y2="10.5682">
					<stop  offset="2.165098e-07" style="stop-color:#183E65"/>
					<stop  offset="1" style="stop-color:#2FC6E8"/>
				</linearGradient>
				<circle class="st5" cx="30.5" cy="12.9" r="2.4"/>
			</g>
			<g>
				<g>
					<linearGradient id="SVGID_7_" gradientUnits="userSpaceOnUse" x1="23.3812" y1="24.7662" x2="33.8608" y2="37.3417">
						<stop  offset="4.330197e-07" style="stop-color:#61C1D0"/>
						<stop  offset="1" style="stop-color:#A0D759"/>
					</linearGradient>
					<path class="st6" d="M23,26c1.1,0,2.1,0.5,2.7,1.2c0.5,0.6,1.3,1,2.1,1.1c0,0,0,0,0.1,0c0,0,0,0,0.1,0c0.8,0.1,1.6-0.1,2.3-0.6
						c0.8-0.6,1.8-0.9,2.9-0.6c1.6,0.4,2.7,1.8,2.8,3.4c0,2.1-1.8,3.8-3.9,3.6c-0.9-0.1-1.7-0.5-2.3-1.2c-0.6-0.6-1.3-1-2.1-1.1
						c0,0,0,0-0.1,0c0,0,0,0-0.1,0c-0.8-0.1-1.6,0.2-2.3,0.6c-0.7,0.5-1.6,0.8-2.5,0.7c-2.1-0.2-3.5-2.2-3.1-4.3
						C20,27.2,21.4,26,23,26z"/>
					<linearGradient id="SVGID_8_" gradientUnits="userSpaceOnUse" x1="18.2826" y1="29.015" x2="28.7622" y2="41.5905">
						<stop  offset="4.330197e-07" style="stop-color:#61C1D0"/>
						<stop  offset="1" style="stop-color:#A0D759"/>
					</linearGradient>
					<path class="st7" d="M26.6,29.5c0,1.1-0.5,2.1-1.2,2.7c-0.6,0.5-1,1.3-1.1,2.1c0,0,0,0,0,0.1c0,0,0,0,0,0.1
						c-0.1,0.8,0.1,1.6,0.6,2.3c0.6,0.8,0.9,1.8,0.6,2.9c-0.4,1.6-1.8,2.7-3.4,2.8c-2.1,0-3.8-1.8-3.6-3.9c0.1-0.9,0.5-1.7,1.2-2.3
						c0.6-0.6,1-1.3,1.1-2.1c0,0,0,0,0-0.1c0,0,0,0,0-0.1c0.1-0.8-0.2-1.6-0.6-2.3c-0.5-0.7-0.8-1.6-0.7-2.5
						c0.2-2.1,2.2-3.5,4.3-3.1C25.4,26.4,26.6,27.9,26.6,29.5z"/>
				</g>
				<linearGradient id="SVGID_9_" gradientUnits="userSpaceOnUse" x1="20.7584" y1="26.952" x2="31.2379" y2="39.5274">
					<stop  offset="4.330197e-07" style="stop-color:#61C1D0"/>
					<stop  offset="1" style="stop-color:#A0D759"/>
				</linearGradient>
				<circle class="st8" cx="29.4" cy="37.3" r="2.4"/>
			</g>
		</g>
		<circle class="st9" cx="14.4" cy="10.9" r="1.5"/>
		<circle class="st9" cx="13.7" cy="37.6" r="1.5"/>
		<g>
			<circle class="st9" cx="36.7" cy="25.2" r="1.5"/>
		</g>
	</g>
	<linearGradient id="SVGID_10_" gradientUnits="userSpaceOnUse" x1="54.1001" y1="13.7957" x2="54.1001" y2="39.6438">
		<stop  offset="0" style="stop-color:#3771B2"/>
		<stop  offset="1" style="stop-color:#1E3E62"/>
	</linearGradient>
	<path class="st10" d="M63.5,28.7c0,0.7-0.1,1.3-0.3,1.8c-0.2,0.5-0.4,1-0.7,1.4c-0.3,0.4-0.6,0.8-1,1.1s-0.8,0.5-1.2,0.7
		s-0.8,0.3-1.2,0.4c-0.4,0.1-0.8,0.1-1.2,0.1H44.8v-3.4H58c0.7,0,1.2-0.2,1.5-0.6c0.4-0.4,0.5-0.9,0.5-1.6c0-0.3,0-0.6-0.1-0.9
		c-0.1-0.3-0.2-0.5-0.4-0.7c-0.2-0.2-0.4-0.3-0.7-0.4c-0.3-0.1-0.5-0.2-0.9-0.2h-7.9c-0.6,0-1.1-0.1-1.8-0.3c-0.6-0.2-1.2-0.5-1.8-1
		c-0.5-0.4-1-1-1.4-1.7c-0.4-0.7-0.5-1.6-0.5-2.6c0-1,0.2-1.9,0.5-2.6c0.4-0.7,0.8-1.3,1.4-1.7s1.1-0.8,1.8-1
		c0.6-0.2,1.2-0.3,1.8-0.3h11.6v3.4H50.2c-0.6,0-1.2,0.2-1.5,0.6c-0.4,0.4-0.5,0.9-0.5,1.6c0,0.7,0.2,1.2,0.5,1.6
		c0.4,0.4,0.9,0.6,1.5,0.6H58h0c0.4,0,0.8,0.1,1.2,0.2c0.4,0.1,0.8,0.2,1.2,0.4c0.4,0.2,0.8,0.4,1.2,0.7c0.4,0.3,0.7,0.6,1,1.1
		c0.3,0.4,0.5,0.9,0.7,1.4C63.4,27.4,63.5,28,63.5,28.7z"/>
	<linearGradient id="SVGID_11_" gradientUnits="userSpaceOnUse" x1="72.0652" y1="13.7957" x2="72.0652" y2="39.6438">
		<stop  offset="0" style="stop-color:#3771B2"/>
		<stop  offset="1" style="stop-color:#1E3E62"/>
	</linearGradient>
	<path class="st11" d="M79.9,29.5c0,0.5-0.1,1-0.3,1.5c-0.2,0.5-0.4,1.1-0.8,1.5c-0.4,0.5-0.9,0.9-1.5,1.2c-0.6,0.3-1.3,0.5-2.2,0.5
		H69c-0.5,0-1-0.1-1.5-0.2s-1.1-0.4-1.5-0.8c-0.5-0.4-0.9-0.9-1.2-1.5c-0.3-0.6-0.5-1.3-0.5-2.2c0-0.5,0.1-1,0.2-1.5
		c0.2-0.6,0.4-1.1,0.8-1.5c0.4-0.5,0.9-0.9,1.5-1.2c0.6-0.3,1.3-0.5,2.2-0.5h6.2v3.3H69c-0.5,0-0.8,0.1-1.1,0.4
		c-0.3,0.3-0.4,0.6-0.4,1.1c0,0.4,0.1,0.8,0.4,1c0.3,0.2,0.6,0.4,1,0.4h6.1c0.5,0,0.8-0.1,1.1-0.4c0.3-0.3,0.4-0.6,0.4-1.1v-4.8
		c0-0.4-0.1-0.8-0.4-1.1c-0.3-0.3-0.6-0.4-1-0.4h-7.5V20h7.5c0.5,0,1,0.1,1.5,0.2c0.5,0.2,1.1,0.4,1.5,0.8c0.5,0.4,0.9,0.9,1.2,1.5
		c0.3,0.6,0.5,1.3,0.5,2.2V29.5z"/>
	<linearGradient id="SVGID_12_" gradientUnits="userSpaceOnUse" x1="92.1677" y1="13.7957" x2="92.1677" y2="39.6438">
		<stop  offset="0" style="stop-color:#3771B2"/>
		<stop  offset="1" style="stop-color:#1E3E62"/>
	</linearGradient>
	<path class="st12" d="M94.7,34.2h-3.4v-9.4c0-0.4-0.1-0.8-0.4-1c-0.2-0.2-0.6-0.3-1.1-0.3h-4.4v10.8H82V21.7c0-0.2,0-0.5,0.1-0.7
		c0.1-0.2,0.2-0.4,0.4-0.5c0.2-0.2,0.3-0.3,0.6-0.4c0.2-0.1,0.4-0.1,0.7-0.1h6.2c0.5,0,1,0.1,1.5,0.2c0.5,0.2,1.1,0.4,1.6,0.8V20
		h4.6c0.3,0,0.7,0,1,0.1c0.4,0.1,0.7,0.2,1.1,0.3s0.7,0.4,1,0.6c0.3,0.2,0.6,0.6,0.9,0.9c0.2,0.4,0.4,0.8,0.6,1.2
		c0.1,0.5,0.2,1,0.2,1.6v9.4h-3.4v-9.4c0-0.4-0.1-0.8-0.3-1c-0.2-0.2-0.6-0.3-1-0.3h-3.1c0.1,0.4,0.2,0.9,0.2,1.4V34.2z"/>
	<linearGradient id="SVGID_13_" gradientUnits="userSpaceOnUse" x1="112.5003" y1="13.7957" x2="112.5003" y2="39.6438">
		<stop  offset="0" style="stop-color:#3771B2"/>
		<stop  offset="1" style="stop-color:#1E3E62"/>
	</linearGradient>
	<path class="st13" d="M120.4,29.4c0,0.6-0.1,1.1-0.2,1.6c-0.1,0.5-0.3,0.9-0.6,1.2c-0.2,0.4-0.5,0.7-0.9,0.9
		c-0.3,0.3-0.7,0.5-1,0.6c-0.4,0.2-0.7,0.3-1.1,0.3c-0.4,0.1-0.7,0.1-1,0.1h-6.2v-3.4h6.2c0.5,0,0.8-0.1,1-0.4
		c0.2-0.2,0.3-0.6,0.3-1v-4.6c0-0.5-0.1-0.8-0.3-1.1c-0.2-0.2-0.6-0.3-1-0.3h-6.1c-0.5,0-0.8,0.1-1.1,0.3c-0.2,0.2-0.4,0.6-0.4,1
		v13.9h-3.4V24.8c0-0.6,0.1-1.1,0.2-1.6c0.1-0.5,0.3-0.9,0.6-1.2c0.3-0.4,0.5-0.7,0.9-0.9c0.3-0.3,0.7-0.5,1-0.6
		c0.4-0.2,0.7-0.3,1.1-0.3c0.4-0.1,0.7-0.1,1-0.1h6.2c0.6,0,1.1,0.1,1.6,0.2c0.5,0.1,0.9,0.3,1.2,0.6s0.7,0.5,0.9,0.9
		c0.3,0.3,0.5,0.7,0.6,1c0.2,0.4,0.3,0.7,0.3,1.1c0.1,0.4,0.1,0.7,0.1,1V29.4z"/>
	<linearGradient id="SVGID_14_" gradientUnits="userSpaceOnUse" x1="125.5772" y1="13.7957" x2="125.5772" y2="39.6438">
		<stop  offset="0" style="stop-color:#3771B2"/>
		<stop  offset="1" style="stop-color:#1E3E62"/>
	</linearGradient>
	<path class="st14" d="M128.7,34.2h-1.5c-0.5,0-1-0.1-1.6-0.2c-0.6-0.2-1.1-0.4-1.6-0.8c-0.5-0.4-0.9-0.9-1.2-1.5
		c-0.3-0.6-0.5-1.4-0.5-2.2V14h3.4v15.4c0,0.4,0.1,0.8,0.4,1c0.3,0.3,0.6,0.4,1,0.4h1.5V34.2z"/>
	<linearGradient id="SVGID_15_" gradientUnits="userSpaceOnUse" x1="137.6351" y1="13.7957" x2="137.6351" y2="39.6438">
		<stop  offset="0" style="stop-color:#3771B2"/>
		<stop  offset="1" style="stop-color:#1E3E62"/>
	</linearGradient>
	<path class="st15" d="M145.4,24.7c0,0.5-0.1,1-0.3,1.5c-0.2,0.5-0.4,1.1-0.8,1.5c-0.4,0.5-0.9,0.9-1.5,1.2
		c-0.6,0.3-1.3,0.5-2.2,0.5h-6.2v-3.2h6.2c0.5,0,0.8-0.1,1.1-0.4c0.3-0.3,0.4-0.6,0.4-1.1c0-0.4-0.1-0.8-0.4-1.1
		c-0.3-0.3-0.6-0.4-1-0.4h-6.2c-0.5,0-0.8,0.1-1.1,0.4c-0.3,0.3-0.4,0.6-0.4,1.1v4.8c0,0.5,0.1,0.8,0.4,1.1c0.3,0.3,0.6,0.4,1.1,0.4
		h6.1v3.3h-6.2c-0.5,0-1-0.1-1.5-0.2s-1.1-0.4-1.5-0.8c-0.5-0.4-0.9-0.9-1.2-1.5c-0.3-0.6-0.5-1.3-0.5-2.2v-4.8c0-0.5,0.1-1,0.2-1.5
		c0.2-0.5,0.4-1.1,0.8-1.5c0.4-0.5,0.9-0.9,1.5-1.2c0.6-0.3,1.3-0.5,2.2-0.5h6.2c0.5,0,1,0.1,1.5,0.2c0.5,0.2,1.1,0.4,1.5,0.8
		c0.5,0.4,0.9,0.9,1.2,1.5C145.3,23.1,145.4,23.9,145.4,24.7z"/>
	<linearGradient id="SVGID_16_" gradientUnits="userSpaceOnUse" x1="155.6263" y1="13.2957" x2="155.6263" y2="39.0165">
		<stop  offset="1.082549e-07" style="stop-color:#37B4ED"/>
		<stop  offset="1" style="stop-color:#1E639C"/>
	</linearGradient>
	<path class="st16" d="M164.2,34.2h-12.3c-0.3,0-0.7,0-1-0.1c-0.4-0.1-0.7-0.2-1.1-0.3c-0.4-0.2-0.7-0.4-1-0.6
		c-0.3-0.2-0.6-0.6-0.9-0.9c-0.3-0.4-0.4-0.8-0.6-1.2c-0.1-0.5-0.2-1-0.2-1.6v-9.3c0-0.3,0-0.7,0.1-1c0.1-0.4,0.2-0.7,0.4-1.1
		c0.2-0.4,0.4-0.7,0.6-1c0.3-0.3,0.6-0.6,0.9-0.9c0.4-0.3,0.8-0.4,1.2-0.6c0.5-0.1,1-0.2,1.6-0.2h12.3v3.4h-12.3
		c-0.4,0-0.8,0.1-1,0.4c-0.2,0.2-0.4,0.6-0.4,1.1v9.2c0,0.4,0.1,0.8,0.4,1c0.2,0.2,0.6,0.4,1,0.4h12.3V34.2z"/>
	<linearGradient id="SVGID_17_" gradientUnits="userSpaceOnUse" x1="173.6631" y1="13.2957" x2="173.6631" y2="39.0165">
		<stop  offset="1.082549e-07" style="stop-color:#37B4ED"/>
		<stop  offset="1" style="stop-color:#1E639C"/>
	</linearGradient>
	<path class="st17" d="M181.5,29.4c0,0.6-0.1,1.1-0.2,1.6c-0.1,0.5-0.3,0.9-0.6,1.2c-0.2,0.4-0.5,0.7-0.9,0.9
		c-0.3,0.3-0.7,0.5-1,0.6c-0.4,0.2-0.7,0.3-1.1,0.3c-0.4,0.1-0.7,0.1-1,0.1h-6.2c-0.5,0-1-0.1-1.6-0.2c-0.6-0.2-1.1-0.4-1.6-0.8
		c-0.5-0.4-0.9-0.9-1.2-1.5c-0.3-0.6-0.5-1.4-0.5-2.2v-4.6c0-0.9,0.2-1.6,0.5-2.2c0.3-0.6,0.7-1.1,1.2-1.5c0.5-0.4,1-0.7,1.6-0.8
		c0.6-0.2,1.1-0.2,1.6-0.2h6.2c0.9,0,1.6,0.2,2.2,0.5c0.6,0.3,1.1,0.7,1.5,1.2c0.4,0.5,0.7,1,0.8,1.6c0.2,0.6,0.3,1.1,0.3,1.6V29.4z
		 M178.1,24.8c0-0.5-0.1-0.8-0.4-1.1c-0.2-0.2-0.6-0.3-1-0.3h-6.1c-0.5,0-0.8,0.1-1,0.3c-0.2,0.2-0.4,0.6-0.4,1v4.6
		c0,0.4,0.1,0.8,0.4,1c0.2,0.2,0.6,0.4,1,0.4h6.1c0.5,0,0.8-0.1,1-0.4c0.2-0.2,0.3-0.6,0.3-1V24.8z"/>
	<linearGradient id="SVGID_18_" gradientUnits="userSpaceOnUse" x1="191.3116" y1="13.2957" x2="191.3116" y2="39.0165">
		<stop  offset="1.082549e-07" style="stop-color:#37B4ED"/>
		<stop  offset="1" style="stop-color:#1E639C"/>
	</linearGradient>
	<path class="st18" d="M199.2,32.5c0,0.2,0,0.5-0.1,0.7c-0.1,0.2-0.2,0.4-0.4,0.5c-0.2,0.2-0.3,0.3-0.5,0.4
		c-0.2,0.1-0.4,0.1-0.7,0.1h-7.7c-0.4,0-0.9,0-1.3-0.1c-0.5-0.1-0.9-0.3-1.4-0.5c-0.5-0.2-0.9-0.5-1.3-0.8c-0.4-0.3-0.8-0.7-1.1-1.2
		c-0.3-0.5-0.6-1-0.8-1.6c-0.2-0.6-0.3-1.3-0.3-2.1V20h3.4v7.9c0,0.4,0.1,0.8,0.2,1.2s0.4,0.7,0.6,0.9c0.3,0.3,0.6,0.5,0.9,0.6
		c0.4,0.1,0.7,0.2,1.2,0.2h6V20h3.4V32.5z"/>
	<linearGradient id="SVGID_19_" gradientUnits="userSpaceOnUse" x1="209.4747" y1="13.2957" x2="209.4747" y2="39.0165">
		<stop  offset="1.082549e-07" style="stop-color:#37B4ED"/>
		<stop  offset="1" style="stop-color:#1E639C"/>
	</linearGradient>
	<path class="st19" d="M217.4,34.2h-3.4v-7.9c0-0.4-0.1-0.8-0.2-1.2s-0.4-0.7-0.6-0.9c-0.3-0.3-0.6-0.4-0.9-0.6
		c-0.4-0.1-0.7-0.2-1.2-0.2h-6v10.8h-3.4V21.7c0-0.2,0-0.5,0.1-0.7s0.2-0.4,0.4-0.5s0.3-0.3,0.6-0.4c0.2-0.1,0.4-0.1,0.7-0.1h7.7
		c0.4,0,0.9,0,1.4,0.1c0.5,0.1,1,0.3,1.4,0.5s0.9,0.5,1.3,0.8c0.4,0.3,0.8,0.7,1.1,1.2c0.3,0.5,0.6,1,0.8,1.6
		c0.2,0.6,0.3,1.3,0.3,2.1V34.2z"/>
	<linearGradient id="SVGID_20_" gradientUnits="userSpaceOnUse" x1="225.1173" y1="13.2957" x2="225.1173" y2="39.0165">
		<stop  offset="1.082549e-07" style="stop-color:#37B4ED"/>
		<stop  offset="1" style="stop-color:#1E639C"/>
	</linearGradient>
	<path class="st20" d="M232.1,23.4h-6v10.8h-3.5V23.4h-4.4V20h4.4v-4.6h3.5V20h6V23.4z"/>
	<linearGradient id="SVGID_21_" gradientUnits="userSpaceOnUse" x1="240.1279" y1="13.2957" x2="240.1279" y2="39.0165">
		<stop  offset="1.082549e-07" style="stop-color:#37B4ED"/>
		<stop  offset="1" style="stop-color:#1E639C"/>
	</linearGradient>
	<path class="st21" d="M247.2,29.4c0,0.6-0.1,1.1-0.2,1.6c-0.1,0.5-0.3,0.9-0.6,1.2c-0.2,0.4-0.5,0.7-0.9,0.9
		c-0.3,0.3-0.7,0.5-1,0.6c-0.4,0.2-0.7,0.3-1.1,0.3c-0.4,0.1-0.7,0.1-1,0.1h-9.3v-3.4h9.2c0.5,0,0.8-0.1,1.1-0.4
		c0.2-0.2,0.4-0.6,0.4-1c0-0.9-0.5-1.4-1.4-1.4h-5.3c-0.8,0-1.4-0.1-1.9-0.4c-0.5-0.3-1-0.6-1.3-1c-0.3-0.4-0.6-0.8-0.7-1.3
		c-0.1-0.5-0.2-0.9-0.2-1.3c0-0.8,0.1-1.4,0.4-1.9c0.3-0.5,0.6-0.9,1-1.3c0.4-0.3,0.9-0.6,1.3-0.7c0.5-0.1,0.9-0.2,1.4-0.2h8.4v3.4
		h-8.4c-0.2,0-0.3,0-0.4,0.1c-0.1,0-0.2,0.1-0.2,0.2c0,0.1-0.1,0.1-0.1,0.2c0,0.1,0,0.1,0,0.2c0,0.1,0,0.2,0.1,0.3
		c0,0.1,0.1,0.1,0.2,0.2c0.1,0,0.1,0.1,0.2,0.1c0.1,0,0.2,0,0.2,0h5.3c0.9,0,1.6,0.2,2.2,0.5c0.6,0.3,1.1,0.7,1.5,1.2
		c0.4,0.5,0.7,1,0.8,1.6C247.2,28.4,247.2,29,247.2,29.4z"/>
	<g>
		<path class="st22" d="M41.4,42.9c-0.3,0-0.5-0.2-0.5-0.5V7.1c0-0.3,0.2-0.5,0.5-0.5c0.3,0,0.5,0.2,0.5,0.5v35.3
			C41.9,42.7,41.7,42.9,41.4,42.9z"/>
	</g>
</g>
</svg>
